<?xml version="1.0" encoding="UTF-8"?>
<svg width="92px" height="92px" viewBox="0 0 92 92" version="1.1" xmlns="http://www.w3.org/2000/svg" xmlns:xlink="http://www.w3.org/1999/xlink">
    <!-- Generator: Sketch 52.6 (67491) - http://www.bohemiancoding.com/sketch -->
    <title>Group 13</title>
    <desc>Created with Sketch.</desc>
    <g id="Crimediggers" stroke="none" stroke-width="1" fill="none" fill-rule="evenodd" stroke-linecap="round" stroke-linejoin="round">
        <g id="#CRIMEDIGGERS-desktop" transform="translate(-376.000000, -1243.000000)" stroke="#FFFFFF" stroke-width="2">
            <g id="Intro" transform="translate(135.000000, 777.000000)">
                <g id="Icon" transform="translate(197.000000, 467.000000)">
                    <g id="Group-13" transform="translate(45.000000, 0.000000)">
                        <path d="M76.9203297,76.9204286 C59.492967,94.3477912 31.2389011,94.3477912 13.8115385,76.9204286 C-3.61483516,59.4930659 -3.61483516,31.239 13.8115385,13.8116374 C31.2389011,-3.61473626 59.492967,-3.61473626 76.9203297,13.8116374 C94.3476923,31.239 94.3476923,59.4930659 76.9203297,76.9204286 Z" id="Stroke-1"></path>
                        <path d="M60.8773846,60.8774835 C44.5023297,77.2525385 24.282989,83.5822088 15.7171648,75.0153956 C7.15035165,66.4485824 13.480022,46.2302308 29.8550769,29.8551758 C46.2301319,13.4801209 66.4484835,7.15045055 75.0152967,15.7162747 C83.5821099,24.2840769 77.2524396,44.5024286 60.8773846,60.8774835 Z" id="Stroke-3"></path>
                        <path d="M1.27157143,38.5088242 C10.772011,40.5847582 21.8143187,46.9075055 31.5194835,56.6136593 C41.7211319,66.8153077 48.1853077,78.4935495 49.9091538,88.3065165" id="Stroke-5"></path>
                        <path d="M88.3036484,49.9085604 C78.4916703,48.1847143 66.8144176,41.7205385 56.6137582,31.5198791 C46.9076044,21.8137253 40.5848571,10.7714176 38.5089231,1.27097802" id="Stroke-7"></path>
                        <path d="M76.9203297,13.812033 L13.8115385,76.9208242" id="Stroke-9"></path>
                        <path d="M74.9481429,74.9481429 L13.8124286,13.8124286" id="Stroke-11"></path>
                    </g>
                </g>
            </g>
        </g>
    </g>
</svg>